<?xml version="1.0" encoding="utf-8"?>
<!-- Generator: Adobe Illustrator 18.0.0, SVG Export Plug-In . SVG Version: 6.00 Build 0)  -->
<!DOCTYPE svg PUBLIC "-//W3C//DTD SVG 1.1//EN" "http://www.w3.org/Graphics/SVG/1.1/DTD/svg11.dtd">
<svg version="1.1" id="Capa_1" xmlns="http://www.w3.org/2000/svg" xmlns:xlink="http://www.w3.org/1999/xlink" x="0px" y="0px"
	 viewBox="45.4 10.4 125.1 125.1" enable-background="new 45.4 10.4 125.1 125.1" xml:space="preserve">
<path d="M163.7,17.3c-4.6-4.6-10.1-6.9-16.6-6.9H68.9c-6.5,0-12,2.3-16.6,6.9c-4.6,4.6-6.9,10.1-6.9,16.6v78.2
	c0,6.5,2.3,12,6.9,16.6c4.6,4.6,10.1,6.9,16.6,6.9h78.2c6.5,0,12-2.3,16.6-6.9c4.6-4.6,6.9-10.1,6.9-16.6V33.9
	C170.6,27.4,168.3,21.9,163.7,17.3z M149.7,78.2c0,1.4-0.5,2.6-1.5,3.7c-1,1-2.3,1.5-3.7,1.5h-26.1v26.1c0,1.4-0.5,2.6-1.5,3.7
	s-2.3,1.5-3.7,1.5h-10.4c-1.4,0-2.6-0.5-3.7-1.5s-1.5-2.3-1.5-3.7V83.4H71.5c-1.4,0-2.6-0.5-3.7-1.5s-1.5-2.3-1.5-3.7V67.8
	c0-1.4,0.5-2.6,1.5-3.7c1-1,2.3-1.5,3.7-1.5h26.1V36.5c0-1.4,0.5-2.6,1.5-3.7c1-1,2.3-1.5,3.7-1.5h10.4c1.4,0,2.6,0.5,3.7,1.5
	c1,1,1.5,2.3,1.5,3.7v26.1h26.1c1.4,0,2.6,0.5,3.7,1.5c1,1,1.5,2.3,1.5,3.7V78.2z"/>
</svg>
