<?xml version="1.0" encoding="utf-8"?>
<!-- Generator: Adobe Illustrator 18.0.0, SVG Export Plug-In . SVG Version: 6.00 Build 0)  -->
<!DOCTYPE svg PUBLIC "-//W3C//DTD SVG 1.1//EN" "http://www.w3.org/Graphics/SVG/1.1/DTD/svg11.dtd">
<svg version="1.1" id="Capa_1" xmlns="http://www.w3.org/2000/svg" xmlns:xlink="http://www.w3.org/1999/xlink" x="0px" y="0px"
	 viewBox="50.6 10.4 114.7 125.1" enable-background="new 50.6 10.4 114.7 125.1" xml:space="preserve">
<g>
	<path d="M108,73c8.6,0,16-3.1,22.1-9.2c6.1-6.1,9.2-13.5,9.2-22.1c0-8.6-3.1-16-9.2-22.1c-6.1-6.1-13.5-9.2-22.1-9.2
		s-16,3.1-22.1,9.2c-6.1,6.1-9.2,13.5-9.2,22.1c0,8.6,3.1,16,9.2,22.1S99.4,73,108,73z"/>
	<path d="M165.1,106c-0.2-2.7-0.6-5.7-1.1-8.9c-0.6-3.2-1.3-6.1-2.2-8.8c-0.9-2.7-2-5.4-3.5-7.9c-1.5-2.6-3.1-4.8-5.1-6.6
		s-4.2-3.3-7-4.4c-2.7-1.1-5.8-1.6-9.1-1.6c-0.5,0-1.6,0.6-3.4,1.8s-3.8,2.5-6.1,3.9c-2.3,1.4-5.2,2.7-8.8,3.9
		c-3.6,1.2-7.2,1.8-10.9,1.8c-3.6,0-7.3-0.6-10.9-1.8c-3.6-1.2-6.5-2.5-8.8-3.9c-2.3-1.4-4.3-2.7-6.1-3.9c-1.8-1.2-2.9-1.8-3.4-1.8
		c-3.3,0-6.3,0.5-9.1,1.6s-5.1,2.5-7,4.4c-1.9,1.8-3.6,4-5.1,6.6s-2.6,5.2-3.5,7.9c-0.9,2.7-1.6,5.7-2.2,8.8c-0.6,3.2-1,6.1-1.1,8.9
		c-0.2,2.7-0.3,5.6-0.3,8.4c0,6.5,2,11.7,5.9,15.4c4,3.8,9.2,5.7,15.8,5.7h71.2c6.6,0,11.8-1.9,15.8-5.7c4-3.8,5.9-8.9,5.9-15.4
		C165.4,111.6,165.3,108.8,165.1,106z"/>
</g>
</svg>
